<?xml version="1.0" standalone="no"?>
<!DOCTYPE svg PUBLIC "-//W3C//DTD SVG 20010904//EN"
 "http://www.w3.org/TR/2001/REC-SVG-20010904/DTD/svg10.dtd">
<svg version="1.0" xmlns="http://www.w3.org/2000/svg"
 width="1030.000000pt" height="1056.000000pt" viewBox="0 0 1030.000000 1056.000000"
 preserveAspectRatio="xMidYMid meet">

<g transform="translate(0.000000,1056.000000) scale(0.100000,-0.100000)"
fill="#000000" stroke="none">
<path d="M4745 9830 c-402 -30 -914 -146 -1280 -292 -55 -22 -122 -49 -150
-60 -112 -44 -400 -192 -550 -283 -1074 -650 -1817 -1666 -2104 -2878 -39
-164 -77 -389 -98 -576 -17 -151 -27 -786 -13 -806 4 -5 10 -53 14 -105 13
-181 77 -533 138 -750 155 -557 406 -1072 742 -1520 572 -764 1345 -1320 2246
-1617 267 -88 571 -155 885 -195 159 -20 222 -23 535 -23 329 0 369 2 555 28
503 68 891 178 1330 378 899 409 1640 1101 2123 1984 258 470 449 1066 511
1595 37 308 43 705 16 996 -127 1360 -858 2590 -2000 3360 -580 391 -1215 634
-1920 734 -82 12 -206 25 -275 30 -144 11 -558 10 -705 0z m737 -165 c733 -60
1439 -306 2058 -718 467 -311 898 -739 1211 -1202 424 -627 665 -1307 739
-2085 19 -197 8 -744 -19 -940 -117 -853 -440 -1594 -979 -2250 -131 -159
-471 -494 -627 -618 -602 -476 -1241 -769 -1966 -901 -219 -40 -509 -71 -666
-71 l-43 0 0 1484 0 1484 71 57 c129 105 323 310 402 425 217 318 340 584 421
908 57 226 70 348 70 622 0 221 -3 272 -22 385 -33 182 -80 342 -158 535 -31
76 -157 301 -214 380 -154 217 -378 443 -590 592 l-64 46 -71 -48 c-161 -109
-401 -339 -524 -501 -287 -381 -434 -791 -466 -1299 -7 -110 6 -307 30 -475
87 -599 420 -1204 855 -1555 36 -28 71 -59 78 -68 9 -12 12 -326 12 -1489 0
-1314 -2 -1474 -15 -1480 -18 -6 -333 13 -445 28 -686 90 -1310 319 -1869 687
-764 502 -1374 1255 -1694 2092 -473 1237 -377 2591 266 3745 79 142 286 449
390 579 529 658 1193 1134 1974 1414 375 135 762 215 1193 245 129 10 507 5
662 -8z m-121 -2314 c384 -383 577 -809 619 -1364 42 -542 -159 -1174 -515
-1622 -73 -92 -243 -265 -261 -265 -12 0 -14 41 -14 234 l0 234 48 31 c61 39
166 148 215 222 51 77 124 236 158 344 46 143 80 311 69 339 -12 33 -48 56
-86 56 -57 0 -71 -23 -104 -165 -27 -120 -63 -232 -105 -330 -47 -108 -164
-273 -186 -259 -5 3 -9 157 -9 359 l0 353 48 31 c63 40 168 150 217 226 87
136 168 347 214 558 20 91 20 100 6 132 -28 58 -104 70 -143 21 -9 -13 -25
-63 -36 -112 -23 -112 -69 -258 -108 -349 -53 -121 -167 -283 -190 -269 -4 3
-8 103 -8 223 l0 218 -25 23 c-17 16 -37 24 -62 24 -31 0 -47 9 -102 62 -65
61 -139 170 -180 266 -25 59 -59 83 -108 75 -50 -9 -68 -29 -68 -80 0 -102
160 -348 289 -442 33 -25 67 -50 74 -55 9 -8 12 -91 12 -353 0 -323 -5 -387
-28 -362 -108 118 -172 240 -236 445 -19 58 -36 125 -40 150 -14 93 -69 139
-133 108 -49 -23 -58 -58 -39 -152 36 -181 121 -397 209 -534 61 -95 108 -145
195 -209 l72 -54 -2 -501 c-2 -376 -6 -502 -15 -505 -16 -6 -174 152 -252 252
-268 338 -434 720 -503 1160 -29 188 -31 476 -5 650 60 386 213 733 454 1028
81 98 252 267 336 330 l72 54 60 -45 c33 -25 121 -107 196 -181z"/>
<path d="M2960 4803 c-14 -2 -68 -10 -120 -18 -52 -8 -138 -27 -191 -42 l-97
-27 -5 -47 c-13 -104 24 -419 63 -551 98 -323 257 -569 515 -795 214 -186 522
-332 845 -401 112 -23 147 -26 340 -26 222 -1 322 12 473 60 l47 16 0 96 c0
363 -129 732 -367 1052 -77 103 -280 303 -383 376 -224 161 -439 250 -706 293
-120 19 -334 27 -414 14z m441 -142 c474 -94 876 -406 1121 -870 90 -170 159
-387 177 -552 8 -74 2 -89 -29 -67 -32 22 -299 227 -431 330 l-126 98 -5 102
c-4 85 -11 117 -37 181 -46 115 -136 256 -222 348 -32 34 -70 38 -99 9 -30
-30 -25 -53 29 -117 101 -121 191 -289 205 -380 3 -24 4 -43 1 -43 -4 0 -98
70 -211 156 l-204 156 0 70 c0 95 -24 189 -74 284 -37 72 -44 79 -74 82 -18 2
-40 -2 -48 -9 -20 -17 -17 -76 6 -114 30 -48 70 -180 70 -229 0 -27 -6 -48
-16 -56 -9 -8 -14 -25 -12 -44 3 -26 21 -44 122 -121 66 -50 122 -97 124 -103
3 -9 -19 -12 -75 -12 -102 0 -238 35 -370 94 -107 49 -143 53 -163 16 -25 -47
-5 -76 82 -117 224 -104 453 -142 606 -98 l63 18 37 -30 c33 -27 169 -130 310
-236 28 -22 52 -44 52 -48 0 -15 -50 -22 -113 -15 -99 11 -205 41 -307 86
-146 65 -190 64 -190 -5 0 -48 46 -79 215 -140 180 -65 360 -80 487 -41 l47
15 49 -37 c141 -104 221 -168 222 -174 1 -20 -182 -37 -355 -33 -275 6 -527
75 -779 214 -199 108 -347 231 -482 399 -205 257 -312 539 -331 879 l-6 112
25 10 c21 8 156 32 298 54 68 11 312 -3 411 -22z"/>
<path d="M6920 4804 c-14 -2 -68 -11 -120 -20 -416 -68 -815 -328 -1085 -707
-222 -311 -352 -711 -337 -1039 3 -77 -4 -72 149 -108 145 -34 237 -43 416
-37 188 5 342 31 512 86 394 127 729 375 943 701 92 139 198 395 223 538 29
161 39 259 39 372 l0 126 -102 27 c-166 44 -272 59 -448 62 -91 2 -176 2 -190
-1z m445 -144 c61 -11 124 -24 140 -28 l30 -9 -2 -99 c-6 -415 -210 -837 -531
-1103 -135 -111 -215 -163 -357 -231 -146 -69 -237 -102 -375 -134 -189 -44
-368 -56 -545 -36 -106 13 -137 20 -133 30 3 9 224 181 252 197 11 6 38 4 84
-8 158 -41 335 -13 577 93 87 38 105 54 105 89 0 55 -51 75 -112 43 -152 -79
-382 -137 -473 -120 -42 8 -40 14 28 65 29 22 108 83 177 136 185 142 160 130
233 110 156 -45 395 -4 612 105 69 34 70 36 73 78 3 38 0 43 -24 52 -31 12
-34 11 -170 -49 -50 -22 -130 -49 -178 -60 -100 -24 -240 -29 -234 -8 3 6 56
51 119 100 124 95 142 120 116 161 -32 49 -12 167 48 285 29 58 32 93 9 115
-21 21 -67 20 -86 -1 -54 -61 -111 -239 -112 -350 l-1 -72 -75 -57 c-41 -32
-132 -102 -203 -156 -70 -54 -130 -98 -133 -98 -4 0 -4 21 0 47 9 71 86 219
171 332 47 62 75 109 75 124 0 59 -68 77 -112 30 -97 -105 -199 -277 -243
-408 -9 -27 -18 -90 -20 -139 l-3 -90 -105 -80 c-57 -45 -155 -119 -217 -166
-62 -47 -142 -109 -179 -137 -87 -69 -95 -69 -86 5 66 558 444 1089 939 1322
164 77 322 121 516 144 76 9 300 -4 405 -24z"/>
</g>
</svg>
